<svg width="16" height="17" viewBox="0 0 16 17" fill="none" xmlns="http://www.w3.org/2000/svg">
<path fill-rule="evenodd" clip-rule="evenodd" d="M10.442 10.942C10.5349 10.849 10.6452 10.7752 10.7666 10.7249C10.888 10.6746 11.0181 10.6487 11.1495 10.6487C11.2809 10.6487 11.411 10.6746 11.5324 10.7249C11.6538 10.7752 11.7641 10.849 11.857 10.942L15.707 14.792C15.8946 14.9795 16.0001 15.2338 16.0002 15.4991C16.0003 15.7644 15.895 16.0188 15.7075 16.2065C15.52 16.3941 15.2656 16.4996 15.0004 16.4997C14.7351 16.4998 14.4806 16.3945 14.293 16.207L10.443 12.357C10.35 12.2641 10.2763 12.1538 10.2259 12.0324C10.1756 11.911 10.1497 11.7809 10.1497 11.6495C10.1497 11.5181 10.1756 11.3879 10.2259 11.2665C10.2763 11.1451 10.35 11.0348 10.443 10.942H10.442Z" fill="#DFAA5B"/>
<path fill-rule="evenodd" clip-rule="evenodd" d="M6.5 12.5C7.22227 12.5 7.93747 12.3577 8.60476 12.0813C9.27205 11.8049 9.87837 11.3998 10.3891 10.8891C10.8998 10.3784 11.3049 9.77205 11.5813 9.10476C11.8577 8.43747 12 7.72227 12 7C12 6.27773 11.8577 5.56253 11.5813 4.89524C11.3049 4.22795 10.8998 3.62163 10.3891 3.11091C9.87837 2.60019 9.27205 2.19506 8.60476 1.91866C7.93747 1.64226 7.22227 1.5 6.5 1.5C5.04131 1.5 3.64236 2.07946 2.61091 3.11091C1.57946 4.14236 1 5.54131 1 7C1 8.45869 1.57946 9.85764 2.61091 10.8891C3.64236 11.9205 5.04131 12.5 6.5 12.5ZM13 7C13 8.72391 12.3152 10.3772 11.0962 11.5962C9.87721 12.8152 8.22391 13.5 6.5 13.5C4.77609 13.5 3.12279 12.8152 1.90381 11.5962C0.684819 10.3772 0 8.72391 0 7C0 5.27609 0.684819 3.62279 1.90381 2.40381C3.12279 1.18482 4.77609 0.5 6.5 0.5C8.22391 0.5 9.87721 1.18482 11.0962 2.40381C12.3152 3.62279 13 5.27609 13 7Z" fill="#DFAA5B"/>
</svg>
